<svg width="180" height="180" viewBox="0 0 180 180" fill="none" xmlns="http://www.w3.org/2000/svg">
  <style>
    :root { color-scheme: light dark; }
    @media (prefers-color-scheme: light) {
      .bg { fill: #0f172a; }
      .accent { fill: #22d3ee; }
      .detail { fill: #e2e8f0; }
      .highlight { fill: #38bdf8; }
    }
    @media (prefers-color-scheme: dark) {
      .bg { fill: #e2e8f0; }
      .accent { fill: #0ea5e9; }
      .detail { fill: #0f172a; }
      .highlight { fill: #7cd4ff; }
    }
  </style>
  <rect class="bg" x="14" y="14" width="152" height="152" rx="32" />
  <rect class="accent" x="46" y="88" width="88" height="64" rx="18" />
  <rect class="highlight" x="46" y="88" width="88" height="20" rx="18" opacity="0.75" />
  <path class="detail" d="M60 90v-12c0-21 15-36 40-36s40 15 40 36v12h-14v-12c0-14-10-24-26-24s-26 10-26 24v12z" />
  <path class="detail" d="M64 100c-2.761 0-5 2.239-5 5v25c0 13.255 10.745 24 24 24h44c5.523 0 10-4.477 10-10v-39c0-2.761-2.239-5-5-5H64z" opacity="0.08" />
  <circle class="detail" cx="90" cy="118" r="10" />
  <rect class="detail" x="85" y="118" width="10" height="24" rx="5" />
</svg>
